<svg width="48" height="48" viewBox="0 0 48 48" fill="none" xmlns="http://www.w3.org/2000/svg">
<path d="M0 12C0 5.37258 5.37258 0 12 0H36C42.6274 0 48 5.37258 48 12V36C48 42.6274 42.6274 48 36 48H12C5.37258 48 0 42.6274 0 36V12Z" fill="#10B981"/>
<path d="M32.6498 26.8163C34.5002 24.966 35.6668 23.4167 35.6668 21.0833C35.6668 19.7851 35.273 18.5173 34.5373 17.4476C33.8017 16.3779 32.7589 15.5564 31.5466 15.0918C30.3343 14.6272 29.0096 14.5412 27.7475 14.8452C26.4853 15.1492 25.3451 15.829 24.4773 16.7947M32.6498 26.8163C32.4197 27.0465 32.1465 27.229 31.8459 27.3536C31.5452 27.4781 31.2229 27.5422 30.8975 27.5422C30.5721 27.5422 30.2498 27.4781 29.9491 27.3536C29.6485 27.229 29.3753 27.0465 29.1452 26.8163C29.3943 27.0416 29.595 27.3152 29.7352 27.6205C29.8753 27.9257 29.9519 28.2563 29.9604 28.5921C29.9688 28.9279 29.9089 29.2619 29.7843 29.5738C29.6596 29.8857 29.4729 30.169 29.2354 30.4065C28.9979 30.644 28.7145 30.8308 28.4026 30.9554C28.0907 31.0801 27.7567 31.14 27.4209 31.1315C27.0851 31.1231 26.7546 31.0465 26.4493 30.9063C26.144 30.7662 25.8704 30.5655 25.6452 30.3163C25.8755 30.5457 26.0583 30.8183 26.1832 31.1184C26.3081 31.4185 26.3726 31.7403 26.373 32.0654C26.3734 32.3904 26.3098 32.7124 26.1857 33.0128C26.0616 33.3133 25.8795 33.5863 25.6498 33.8163C25.4281 34.0381 25.164 34.2129 24.8733 34.3303C24.5825 34.4477 24.271 34.5053 23.9575 34.4996C23.644 34.494 23.3348 34.4252 23.0485 34.2973C22.7622 34.1695 22.5045 33.9853 22.291 33.7557L15.8335 27.5C14.0835 25.75 12.3335 23.7667 12.3335 21.0833C12.3338 19.7852 12.7278 18.5176 13.4635 17.448C14.1992 16.3785 15.242 15.5572 16.4543 15.0928C17.6665 14.6283 18.9911 14.5424 20.2531 14.8464C21.5152 15.1505 22.6553 15.8302 23.523 16.7958C23.6527 16.9164 23.8233 16.9833 24.0004 16.9831C24.1775 16.9829 24.3479 16.9155 24.4773 16.7947M32.6498 26.8163C33.0873 26.3788 33.333 25.7854 33.333 25.1667C33.333 24.5479 33.0873 23.9546 32.6498 23.517L30.4553 21.3213C30.1942 21.0601 29.8842 20.8529 29.543 20.7115C29.2018 20.5701 28.8361 20.4974 28.4667 20.4974C28.0974 20.4974 27.7317 20.5701 27.3905 20.7115C27.0493 20.8529 26.7393 21.0601 26.4782 21.3213L24.4832 23.3163C24.0456 23.7538 23.4522 23.9995 22.8335 23.9995C22.2148 23.9995 21.6214 23.7538 21.1838 23.3163C20.7464 22.8788 20.5007 22.2854 20.5007 21.6667C20.5007 21.0479 20.7464 20.4546 21.1838 20.017L24.4773 16.7947" stroke="white" stroke-width="2.33333" stroke-linecap="round" stroke-linejoin="round"/>
</svg>
