<svg width="48" height="48" viewBox="0 0 48 48" fill="none" xmlns="http://www.w3.org/2000/svg">
<path d="M0 24C0 10.7452 10.7452 0 24 0C37.2548 0 48 10.7452 48 24C48 37.2548 37.2548 48 24 48C10.7452 48 0 37.2548 0 24Z" fill="#F59E0B"/>
<path d="M15.8438 26.7812L14.5781 30H13.0312L17.5234 18.9922H19.2188L23.6406 30H22.1172L20.8594 26.7812H15.8438ZM18.3516 20.1172C18.263 20.4089 18.1562 20.7344 18.0312 21.0938C17.9115 21.4479 17.7995 21.7604 17.6953 22.0312L16.2969 25.6172H20.4141L19 21.9844C18.9271 21.8021 18.8307 21.5443 18.7109 21.2109C18.5911 20.8776 18.4714 20.513 18.3516 20.1172ZM33.5 22.3047C33.5 22.9974 33.3464 23.599 33.0391 24.1094C32.7318 24.6198 32.2943 25.0156 31.7266 25.2969C31.1641 25.5729 30.4922 25.7109 29.7109 25.7109H26.4766V30H24.9844V18.9922H29.6172C30.8516 18.9922 31.8073 19.2812 32.4844 19.8594C33.1615 20.4375 33.5 21.2526 33.5 22.3047ZM32 22.3203C32 20.8984 31.1458 20.1875 29.4375 20.1875H26.4766V24.5312H29.5C30.3333 24.5312 30.9583 24.349 31.375 23.9844C31.7917 23.6146 32 23.0599 32 22.3203Z" fill="white"/>
</svg>
