<svg width="48" height="48" viewBox="0 0 48 48" fill="none" xmlns="http://www.w3.org/2000/svg">
<path d="M0 24C0 10.7452 10.7452 0 24 0C37.2548 0 48 10.7452 48 24C48 37.2548 37.2548 48 24 48C10.7452 48 0 37.2548 0 24Z" fill="#10B981"/>
<path d="M14.1406 22.6562V30H12.8125V18.9922H14.7734L17.7031 26.625C17.8073 26.9323 17.9062 27.263 18 27.6172C18.099 27.9661 18.1641 28.2188 18.1953 28.375C18.2266 28.2344 18.2786 28.0417 18.3516 27.7969C18.4245 27.5469 18.4974 27.3073 18.5703 27.0781C18.6432 26.849 18.6953 26.6979 18.7266 26.625L21.6016 18.9922H23.5156V30H22.1719V22.6562C22.1719 22.25 22.1771 21.8516 22.1875 21.4609C22.2031 21.0703 22.2214 20.6875 22.2422 20.3125C22.112 20.776 21.9896 21.1927 21.875 21.5625C21.7656 21.9271 21.6589 22.2396 21.5547 22.5L18.7109 30H17.6641L14.7812 22.5L14.0859 20.3125C14.0964 20.7031 14.1068 21.0938 14.1172 21.4844C14.1328 21.875 14.1406 22.2656 14.1406 22.6562ZM27.6328 25.4297V30H26.1406V18.9922H31.3203C32.5599 18.9922 33.5156 19.2708 34.1875 19.8281C34.8646 20.3802 35.2031 21.151 35.2031 22.1406C35.2031 22.9583 34.9635 23.6458 34.4844 24.2031C34.0104 24.7604 33.3542 25.112 32.5156 25.2578L35.6406 30H33.9219L31.0625 25.4297H27.6328ZM33.7031 22.1562C33.7031 21.5156 33.4844 21.0286 33.0469 20.6953C32.6146 20.3568 31.9896 20.1875 31.1719 20.1875H27.6328V24.25H31.2344C32.0208 24.25 32.6276 24.0677 33.0547 23.7031C33.487 23.3333 33.7031 22.8177 33.7031 22.1562Z" fill="white"/>
</svg>
