<svg width="48" height="48" viewBox="0 0 48 48" fill="none" xmlns="http://www.w3.org/2000/svg">
<path d="M0 24C0 10.7452 10.7452 0 24 0C37.2548 0 48 10.7452 48 24C48 37.2548 37.2548 48 24 48C10.7452 48 0 37.2548 0 24Z" fill="#3B82F6"/>
<path d="M17.5703 30.1562C16.638 30.1562 15.8958 29.9167 15.3438 29.4375C14.7917 28.9531 14.4271 28.2292 14.25 27.2656L15.7109 27.0234C15.8047 27.6276 16.0156 28.099 16.3438 28.4375C16.6719 28.776 17.0833 28.9453 17.5781 28.9453C18.1198 28.9453 18.5469 28.7604 18.8594 28.3906C19.1719 28.0156 19.3281 27.4688 19.3281 26.75V20.2109H17.2109V18.9922H20.8125V26.7188C20.8125 27.7865 20.5234 28.6276 19.9453 29.2422C19.3672 29.8516 18.5755 30.1562 17.5703 30.1562ZM28.25 28.9297C29.7917 28.9297 30.9505 28.1667 31.7266 26.6406L32.9453 27.25C32.4922 28.1979 31.8542 28.9193 31.0312 29.4141C30.2135 29.9089 29.263 30.1562 28.1797 30.1562C27.0651 30.1562 26.1068 29.9245 25.3047 29.4609C24.5026 28.9974 23.8854 28.3385 23.4531 27.4844C23.026 26.625 22.8125 25.612 22.8125 24.4453C22.8125 23.2734 23.026 22.2682 23.4531 21.4297C23.8802 20.5911 24.4948 19.9479 25.2969 19.5C26.099 19.0521 27.0573 18.8281 28.1719 18.8281C29.3438 18.8281 30.3229 19.0573 31.1094 19.5156C31.8958 19.974 32.474 20.6536 32.8438 21.5547L31.4297 22.0234C31.1745 21.3828 30.763 20.8932 30.1953 20.5547C29.6328 20.2161 28.9635 20.0469 28.1875 20.0469C26.9688 20.0469 26.0208 20.4401 25.3438 21.2266C24.6667 22.0078 24.3281 23.0807 24.3281 24.4453C24.3281 25.3411 24.487 26.1276 24.8047 26.8047C25.1276 27.4766 25.5807 28 26.1641 28.375C26.7526 28.7448 27.4479 28.9297 28.25 28.9297Z" fill="white"/>
</svg>
